<svg width="48" height="48" viewBox="0 0 48 48" fill="none">
  <path d="M23.0279 16.2511C23.0279 16.2511 32.6169 27.3209 34.8584 32.6408C37.1009 37.9606 33.6324 46.2497 26.7329 47.7308C19.8339 49.2124 13.6254 44.3738 12.3369 38.2391C11.0484 32.1039 16.6309 17.1666 16.6309 17.1666L18.6809 18.5582L19.6979 16.5079L22.0044 17.8444L23.0279 16.2511Z" fill="#FF4E42"/>
  <path d="M18.92 0C19.3825 0 19.8637 0.144108 20.3595 0.431827C21.3425 1.00178 21.869 1.71384 21.9245 2.54808C22.0062 3.77773 20.9899 4.85531 20.5058 5.29511L22.6044 15.0646C22.6619 15.3338 22.4879 15.5986 22.2155 15.656C21.9407 15.7138 21.6754 15.5408 21.6174 15.2715L19.4567 5.21383C19.4168 5.02784 19.4885 4.83486 19.6398 4.71768C20.0155 4.42597 20.9768 3.48004 20.9178 2.6114C20.885 2.12822 20.5254 1.68392 19.8491 1.29149C19.3392 0.996293 18.8999 0.923491 18.5044 1.07458C17.6496 1.3977 17.2249 2.6503 17.2208 2.66326C17.1573 2.85873 16.9793 2.99586 16.772 3.00932C16.5546 3.02129 16.3705 2.9081 16.2827 2.7221C16.2252 2.60692 15.6457 1.56375 13.9349 1.92377C13.1628 2.08633 12.902 3.07215 13.0493 3.91736C13.2142 4.86428 13.9248 5.89947 15.3976 5.70849C15.6523 5.67408 15.9019 5.84412 15.9569 6.09943L18.0863 16.0135C18.1438 16.2828 17.9698 16.5475 17.6975 16.6044C17.4206 16.6617 17.1573 16.4892 17.0993 16.2204L15.0612 6.73021C15.0521 6.73071 15.043 6.73071 15.0334 6.73071C13.2984 6.73071 12.2932 5.45318 12.0557 4.08689C11.7884 2.55356 12.5061 1.20473 13.7251 0.948423C15.0924 0.662201 16.0467 1.07209 16.6212 1.57073C16.9192 1.05164 17.4125 0.419859 18.1438 0.143111C18.3955 0.0478699 18.6547 0 18.92 0Z" fill="#1820EF"/>
  <path d="M22.6151 24C22.0004 24 21.9997 24.9231 22.6151 24.9231C23.2305 24.9231 23.2311 24 22.6151 24ZM17.5383 31.3846C16.9237 31.3846 16.9225 32.3077 17.5383 32.3077C18.1535 32.3077 18.1542 31.3846 17.5383 31.3846ZM30.0001 32.3077C29.3849 32.3077 29.3842 33.2308 30.0001 33.2308C30.6147 33.2308 30.616 32.3077 30.0001 32.3077ZM31.846 35.5385C31.2314 35.5385 31.2302 36.4615 31.846 36.4615C32.4612 36.4615 32.4619 35.5385 31.846 35.5385ZM30.0001 39.6923C29.3849 39.6923 29.3842 40.6154 30.0001 40.6154C30.6147 40.6154 30.616 39.6923 30.0001 39.6923Z" fill="#FFC024"/>
</svg>
