<svg width="48" height="48" viewBox="0 0 48 48" fill="none" >
<path d="M23.4893 16.2511C23.4893 16.2511 33.0783 27.3209 35.3198 32.6408C37.5623 37.9606 34.0938 46.2497 27.1943 47.7308C20.2953 49.2124 14.0868 44.3738 12.7983 38.2391C11.5098 32.1039 17.0923 17.1666 17.0923 17.1666L19.1423 18.5582L20.1593 16.5079L22.4658 17.8444L23.4893 16.2511Z" fill="#FFC024"/>
<path d="M19.3815 0C19.844 0 20.3251 0.144108 20.8209 0.431827C21.8039 1.00178 22.3305 1.71384 22.386 2.54808C22.4677 3.77773 21.4514 4.85531 20.9672 5.29511L23.0658 15.0646C23.1233 15.3338 22.9493 15.5986 22.677 15.656C22.4021 15.7138 22.1368 15.5408 22.0788 15.2715L19.9181 5.21383C19.8783 5.02784 19.9499 4.83486 20.1012 4.71768C20.4769 4.42597 21.4383 3.48004 21.3792 2.6114C21.3465 2.12822 20.9869 1.68392 20.3105 1.29149C19.8006 0.996293 19.3613 0.923491 18.9659 1.07458C18.111 1.3977 17.6863 2.6503 17.6823 2.66326C17.6187 2.85873 17.4407 2.99586 17.2334 3.00932C17.016 3.02129 16.8319 2.9081 16.7442 2.7221C16.6867 2.60692 16.1072 1.56375 14.3964 1.92377C13.6242 2.08633 13.3634 3.07215 13.5107 3.91736C13.6756 4.86428 14.3863 5.89947 15.859 5.70849C16.1137 5.67408 16.3634 5.84412 16.4183 6.09943L18.5478 16.0135C18.6053 16.2828 18.4313 16.5475 18.1589 16.6044C17.882 16.6617 17.6187 16.4892 17.5607 16.2204L15.5226 6.73021C15.5135 6.73071 15.5044 6.73071 15.4949 6.73071C13.7599 6.73071 12.7547 5.45318 12.5171 4.08689C12.2498 2.55356 12.9675 1.20473 14.1865 0.948423C15.5539 0.662201 16.5081 1.07209 17.0826 1.57073C17.3807 1.05164 17.8739 0.419859 18.6053 0.143111C18.8569 0.0478699 19.1162 0 19.3815 0Z" fill="#FAFAED"/>
<path d="M23.0766 24C22.4618 24 22.4612 24.9231 23.0766 24.9231C23.6919 24.9231 23.6926 24 23.0766 24ZM17.9997 31.3846C17.3852 31.3846 17.3839 32.3077 17.9997 32.3077C18.615 32.3077 18.6156 31.3846 17.9997 31.3846ZM30.4615 32.3077C29.8463 32.3077 29.8457 33.2308 30.4615 33.2308C31.0761 33.2308 31.0774 32.3077 30.4615 32.3077ZM32.3074 35.5385C31.6929 35.5385 31.6916 36.4615 32.3074 36.4615C32.9227 36.4615 32.9233 35.5385 32.3074 35.5385ZM30.4615 39.6923C29.8463 39.6923 29.8457 40.6154 30.4615 40.6154C31.0761 40.6154 31.0774 39.6923 30.4615 39.6923Z" fill="#FF4E42"/>
</svg>
