<svg width="48" height="48" viewBox="0 0 48 48">
<mask id="mask0" mask-type="alpha" maskUnits="userSpaceOnUse" x="1" y="0" width="26" height="31">
<path d="M1.84644 0.72364H26.637V30.8813H1.84644V0.72364Z" fill="white"/>
</mask>
<g mask="url(#mask0)">
<path d="M20.9049 1.67932C19.192 1.67932 16.9882 2.39782 14.5515 3.78406C7.24901 7.93747 3.06338 14.4002 2.83284 18.3718L2.82038 18.6203C2.61524 22.942 4.507 26.6795 7.8812 28.6209C11.2554 30.5622 15.408 30.3016 18.9887 27.9236L19.1953 27.7849C22.466 25.5626 25.8479 18.6382 25.6729 10.1829C25.589 6.11316 24.5672 3.17048 22.8691 2.10578C22.3256 1.82002 21.6632 1.67932 20.9049 1.67932ZM12.7254 30.8813C10.8734 30.8813 9.05689 30.4104 7.40621 29.4607C3.71232 27.3362 1.63987 23.2664 1.86274 18.5753L1.87568 18.3239C2.20448 12.6513 8.40984 6.16734 14.0808 2.94131C17.894 0.772259 21.2654 0.158193 23.3306 1.25819L23.3575 1.27367C25.347 2.50663 26.5404 5.74716 26.6315 10.1631C26.7671 16.7293 24.3946 25.4176 19.7307 28.5865L19.5164 28.7311C17.3649 30.1594 15.0183 30.8813 12.7254 30.8813Z" fill="#1820EF"/>
</g>
<path d="M26.6253 46.1968C28.2594 47.0426 31.0601 46.4843 34.3121 44.6597C41.0782 40.8626 44.9563 34.9591 45.1695 31.3312L45.1815 31.1033C45.3712 27.1608 43.6221 23.7504 40.5018 21.9797C37.3816 20.2084 33.5413 20.4473 30.2285 22.6171L30.0373 22.7439C27.009 24.7736 23.8783 31.1014 24.0402 38.8305C24.1178 42.5442 25.0597 45.2275 26.6253 46.1968ZM28.4372 47.5385C27.5729 47.5385 26.8088 47.3711 26.1639 47.0331L26.1366 47.0173C24.2534 45.8654 23.1682 42.9652 23.082 38.8501C22.956 32.8293 25.1627 24.8613 29.5022 21.9525L29.7014 21.8204C33.3218 19.4494 37.5354 19.1986 40.9761 21.1515C44.4164 23.1034 46.3461 26.8409 46.1387 31.1486L46.1257 31.3875C45.8201 36.5844 40.0534 42.5323 34.7826 45.4907C32.3675 46.8457 30.1954 47.5385 28.4372 47.5385Z" fill="#1820EF"/>
<path d="M19.8462 18.9231C19.8462 22.4915 16.9536 25.3846 13.3846 25.3846C9.81619 25.3846 6.9231 22.4915 6.9231 18.9231C6.9231 15.3546 9.81619 12.4615 13.3846 12.4615C16.9536 12.4615 19.8462 15.3546 19.8462 18.9231Z" fill="#FFC024"/>
<path d="M41.0769 31.3849C41.0769 34.6983 38.3906 37.3846 35.0771 37.3846C31.7637 37.3846 29.0769 34.6983 29.0769 31.3849C29.0769 28.0714 31.7637 25.3846 35.0771 25.3846C38.3906 25.3846 41.0769 28.0714 41.0769 31.3849Z" fill="#FFC024"/>
</svg>
