<svg viewBox="0 0 48 48">
  <mask id="mask0" mask-type="alpha" maskUnits="userSpaceOnUse" x="1" y="0" width="27" height="32">
    <path d="M1.38452 0.270035H27.0935V31.3414H1.38452V0.270035Z" fill="white"/>
  </mask>
  <g mask="url(#mask0)">
    <path d="M12.6661 31.3413C10.7461 31.3413 8.86228 30.8561 7.14997 29.8777C3.31927 27.6887 1.17007 23.4957 1.40119 18.6629L1.41461 18.4039C1.75608 12.5594 8.19077 5.87842 14.0718 2.55514C18.0262 0.319858 21.5224 -0.312318 23.6642 0.820517L23.6925 0.836957C25.7552 2.10729 26.9929 5.44551 27.0878 9.99529C27.2285 16.7604 24.7681 25.7125 19.9309 28.9775L19.7087 29.1265C17.478 30.598 15.044 31.3413 12.6661 31.3413Z" fill="#FAFAED"/>
  </g>
  <path d="M28.1903 48C27.2909 48 26.4968 47.8266 25.8261 47.4773L25.7977 47.461C23.8392 46.2707 22.7107 43.2738 22.6205 39.0216C22.49 32.8002 24.7848 24.5672 29.2978 21.5614L29.5051 21.4249C33.2697 18.9744 37.6522 18.7157 41.2305 20.7332C44.8083 22.7507 46.8152 26.6127 46.5995 31.064L46.586 31.3108C46.2681 36.6804 40.2709 42.827 34.7893 45.8835C32.2778 47.2841 30.0188 48 28.1903 48Z" fill="#FAFAED"/>
  <path d="M19.3845 18.4615C19.3845 22.03 16.4919 24.9231 12.923 24.9231C9.35452 24.9231 6.46143 22.03 6.46143 18.4615C6.46143 14.8931 9.35452 12 12.923 12C16.4919 12 19.3845 14.8931 19.3845 18.4615Z" fill="#FFC024"/>
  <path d="M41.5383 31.8464C41.5383 35.1599 38.8516 37.8461 35.5381 37.8461C32.2246 37.8461 29.5383 35.1599 29.5383 31.8464C29.5383 28.5329 32.2246 25.8461 35.5381 25.8461C38.8516 25.8461 41.5383 28.5329 41.5383 31.8464Z" fill="#FFC024"/>
</svg>
