<svg viewBox="0 0 48 48">
  <path d="M47.3617 21.006C47.3617 16.5817 36.6333 12.8437 23.934 12.8437C11.2347 12.8437 0.506348 16.5817 0.506348 21.006C0.506348 21.7527 0.818385 22.4785 1.38713 23.1713C4.18898 19.7579 13.3776 17.1744 23.934 17.1744C34.491 17.1744 43.6791 19.7579 46.4814 23.1713C47.0502 22.4785 47.3617 21.7527 47.3617 21.006Z" fill="#FF4E42"/>
  <path d="M23.9341 17.1741C13.3777 17.1741 4.18906 19.7581 1.38721 23.1711C4.18906 26.5846 13.3777 29.1686 23.9341 29.1686C34.491 29.1686 43.6792 26.5846 46.4815 23.1711C43.6792 19.7581 34.491 17.1741 23.9341 17.1741Z" fill="#FFC024"/>
  <path d="M23.9344 30.1654C35.9144 30.1654 45.6229 27.0874 47.869 22.8789C47.6821 27.6038 45.8133 39.8914 31.6535 43.1748H16.2152C2.0544 39.8914 0.186669 27.6018 0.000244141 22.8779C2.24432 27.0869 11.9539 30.1654 23.9344 30.1654ZM29.9248 45.9004H17.9438C16.9892 45.9004 16.2151 45.1263 16.2151 44.1717H31.6534C31.6534 45.1263 30.8793 45.9004 29.9248 45.9004Z" fill="#FAFAED"/>
  <path d="M16.225 16.2972C15.9494 16.2972 15.7266 16.0739 15.7266 15.7987C15.7266 14.7524 16.3815 14.2206 16.9079 13.7939C17.4268 13.3727 17.7204 13.108 17.7204 12.5632C17.7204 12.0174 17.4268 11.7522 16.9074 11.331C16.381 10.9033 15.7266 10.3715 15.7266 9.32468C15.7266 8.27742 16.381 7.74506 16.9074 7.31738C17.4268 6.89568 17.7204 6.63 17.7204 6.08369C17.7204 5.53787 17.4268 5.27219 16.9074 4.85049C16.381 4.42281 15.7266 3.89046 15.7266 2.84319C15.7266 2.56804 15.9494 2.34473 16.225 2.34473C16.5007 2.34473 16.7235 2.56804 16.7235 2.84319C16.7235 3.3895 17.0171 3.65468 17.5365 4.07688C18.0629 4.50456 18.7173 5.03642 18.7173 6.08369C18.7173 7.13145 18.0629 7.66331 17.5365 8.09099C17.0171 8.51319 16.7235 8.77837 16.7235 9.32468C16.7235 9.87 17.0171 10.1352 17.5365 10.5569C18.0629 10.9841 18.7173 11.5159 18.7173 12.5632C18.7173 13.6093 18.0626 14.1406 17.5363 14.5678L17.536 14.568C17.0171 14.9887 16.7235 15.2539 16.7235 15.7987C16.7235 16.0739 16.5007 16.2972 16.225 16.2972ZM22.9372 16.2972C22.6615 16.2972 22.4387 16.0739 22.4387 15.7987C22.4387 14.7524 23.0937 14.2206 23.6201 13.7939C24.139 13.3727 24.4326 13.108 24.4326 12.5632C24.4326 12.0174 24.139 11.7522 23.6196 11.331C23.0932 10.9033 22.4387 10.3715 22.4387 9.32468C22.4387 8.27742 23.0932 7.74506 23.6196 7.31738C24.139 6.89568 24.4326 6.63 24.4326 6.08369C24.4326 5.53787 24.139 5.27219 23.6196 4.85049C23.0932 4.42281 22.4387 3.89046 22.4387 2.84319C22.4387 2.56804 22.6615 2.34473 22.9372 2.34473C23.2128 2.34473 23.4357 2.56804 23.4357 2.84319C23.4357 3.3895 23.7292 3.65468 24.2486 4.07688C24.775 4.50456 25.4295 5.03642 25.4295 6.08369C25.4295 7.13145 24.775 7.66331 24.2486 8.09099C23.7292 8.51319 23.4357 8.77837 23.4357 9.32468C23.4357 9.87 23.7292 10.1352 24.2486 10.5569C24.775 10.9841 25.4295 11.5159 25.4295 12.5632C25.4295 13.6093 24.7748 14.1406 24.2484 14.5678L24.2481 14.568C23.7292 14.9887 23.4357 15.2539 23.4357 15.7987C23.4357 16.0739 23.2128 16.2972 22.9372 16.2972ZM29.1515 15.7987C29.1515 16.0739 29.3743 16.2972 29.6499 16.2972C29.9256 16.2972 30.1484 16.0739 30.1484 15.7987C30.1484 15.2539 30.442 14.9887 30.9609 14.568L30.9612 14.5678C31.4875 14.1406 32.1422 13.6093 32.1422 12.5632C32.1422 11.5159 31.4877 10.9841 30.9614 10.5569C30.442 10.1352 30.1484 9.87 30.1484 9.32468C30.1484 8.77837 30.442 8.51319 30.9614 8.09099C31.4877 7.66331 32.1422 7.13145 32.1422 6.08369C32.1422 5.03642 31.4877 4.50456 30.9614 4.07688C30.442 3.65468 30.1484 3.3895 30.1484 2.84319C30.1484 2.56804 29.9256 2.34473 29.6499 2.34473C29.3743 2.34473 29.1515 2.56804 29.1515 2.84319C29.1515 3.89046 29.8059 4.42281 30.3323 4.85049C30.8517 5.27219 31.1453 5.53787 31.1453 6.08369C31.1453 6.63 30.8517 6.89568 30.3323 7.31738C29.8059 7.74506 29.1515 8.27742 29.1515 9.32468C29.1515 10.3715 29.8059 10.9033 30.3323 11.331C30.8517 11.7522 31.1453 12.0174 31.1453 12.5632C31.1453 13.108 30.8517 13.3727 30.3328 13.7939C29.8064 14.2206 29.1515 14.7524 29.1515 15.7987Z" fill="#FAFAED"/>
</svg>
