<svg viewBox="0 0 48 48">
  <path d="M13.843 11.904C6.384 12.783 2.7 14.597 2.77 15.178c.07.581 4.08 1.489 11.54.61 7.46-.879 11.143-2.693 11.074-3.274-.07-.58-4.082-1.489-11.54-.61z" fill="#FF4E42"/>
  <mask id="a" maskUnits="userSpaceOnUse" x="1" y="0" width="25" height="15">
    <path d="M1.846.352h23.578v13.773H1.846V.352z" fill="#fff"/>
  </mask>
  <g mask="url(#a)">
    <path d="M13.475 10.661c3.166-.38 6.18-.473 8.484-.265 1.658.15 2.807.439 3.465.874C25.151 8.173 23.414-.833 12.443.482 1.423 1.803 1.598 11.078 1.96 14.125c.525-.596 1.585-1.163 3.203-1.715 2.193-.748 5.144-1.37 8.31-1.749z" fill="#1820EF"/>
  </g>
  <path d="M16.004 13.245c-.147-.802-1-1.343-1.942-1.23-.92.11-1.622.819-1.6 1.615l.399 13.642c.02.669.365 1.296.95 1.72.583.425 1.361.616 2.134.524.761-.091 1.465-.45 1.933-.987.467-.537.668-1.216.551-1.863l-2.425-13.421z" fill="#FFC024"/>
  <path d="M34.586 29.828c-7.46-.789-11.448.22-11.508.823-.06.604 3.645 2.425 11.105 3.213 7.46.789 11.448-.218 11.509-.823.06-.603-3.646-2.424-11.106-3.213z" fill="#FF4E42"/>
  <path d="M34.544 28.64c3.156.325 6.102.894 8.295 1.6 1.577.51 2.63 1.04 3.175 1.606.404-3.058.668-12.158-10.27-13.286-10.984-1.135-12.821 7.883-13.128 10.912.639-.462 1.79-.78 3.481-.96 2.29-.243 5.29-.198 8.447.127z" fill="#1820EF"/>
  <mask id="b" maskUnits="userSpaceOnUse" x="30" y="30" width="7" height="18">
    <path d="M30.23 30.244h6.2v17.294h-6.2V30.244z" fill="#fff"/>
  </mask>
  <g mask="url(#b)">
    <path d="M36.428 31.861c.033-.804-.684-1.51-1.633-1.606-.926-.093-1.77.438-1.923 1.21L30.268 44.69c-.128.65.073 1.329.553 1.864.478.536 1.2.888 1.978.967.766.078 1.536-.117 2.111-.532.577-.415.923-1.026.95-1.675l.569-13.454z" fill="#FFC024"/>
  </g>
</svg>
