<svg width="48" height="48" viewBox="0 0 48 48">
  <path d="M13.8431 11.9039C6.38429 12.7825 2.70046 14.5971 2.77026 15.1783C2.84007 15.759 6.85065 16.667 14.3104 15.7884C21.7702 14.9093 25.453 13.0952 25.3837 12.514C25.3134 11.9333 21.3023 11.0253 13.8431 11.9039Z" fill="#FF4E42"/>
  <mask id="mask0" mask-type="alpha" maskUnits="userSpaceOnUse" x="1" y="0" width="25" height="15">
    <path d="M1.84619 0.351746H25.424V14.1246H1.84619V0.351746Z" fill="white"/>
  </mask>
  <g mask="url(#mask0)">
    <path d="M13.4745 10.6612C16.6411 10.2813 19.6543 10.1875 21.9593 10.3962C23.6172 10.5462 24.7658 10.8348 25.4241 11.27C25.1508 8.1731 23.414 -0.833346 12.4425 0.481975C1.42262 1.80322 1.59846 11.0781 1.96091 14.1246C2.48597 13.5291 3.54638 12.9617 5.16417 12.4097C7.35699 11.6617 10.308 11.0406 13.4745 10.6612Z" fill="#FAFAED"/>
  </g>
  <path d="M16.0037 13.245C15.857 12.4426 15.0041 11.9023 14.0622 12.0148C13.1428 12.1244 12.4396 12.834 12.4622 13.6304L12.8608 27.2719C12.8805 27.941 13.226 28.5682 13.8107 28.9926C14.3939 29.4175 15.172 29.6079 15.9451 29.5157C16.706 29.4249 17.4102 29.0651 17.8778 28.5292C18.3453 27.9923 18.5461 27.3133 18.429 26.6659L16.0037 13.245Z" fill="#FFC024"/>
  <path d="M34.586 29.8281C27.1266 29.0392 23.1384 30.0472 23.0776 30.6505C23.0173 31.2549 26.7228 33.0757 34.1832 33.8641C41.6426 34.653 45.6313 33.6456 45.6916 33.0412C45.7514 32.4378 42.0459 30.6165 34.586 29.8281Z" fill="#FF4E42"/>
  <path d="M34.5436 28.6394C37.7004 28.9654 40.6462 29.5342 42.8394 30.2406C44.416 30.7492 45.4688 31.2803 46.0137 31.8461C46.4182 28.7877 46.6819 19.6884 35.7446 18.5596C24.76 17.4254 22.923 26.443 22.6155 29.4716C23.2549 29.01 24.4066 28.6928 26.0973 28.5126C28.3875 28.2689 31.3874 28.3139 34.5436 28.6394Z" fill="#FAFAED"/>
  <mask id="mask1" mask-type="alpha" maskUnits="userSpaceOnUse" x="30" y="30" width="7" height="18">
    <path d="M30.2302 30.2444H36.4296V47.5385H30.2302V30.2444Z" fill="white"/>
  </mask>
  <g mask="url(#mask1)">
    <path d="M36.4285 31.8613C36.4607 31.057 35.7436 30.351 34.7952 30.2551C33.8694 30.1615 33.0243 30.6925 32.872 31.4647L30.268 44.6912C30.1399 45.3406 30.3412 46.0197 30.8208 46.5551C31.2995 47.091 32.0205 47.4428 32.7988 47.5222C33.5648 47.5996 34.3348 47.4052 34.9104 46.9902C35.487 46.5746 35.8326 45.9642 35.8598 45.3152L36.4285 31.8613Z" fill="#FFC024"/>
  </g>
</svg>
