<svg viewBox="0 0 80 8">
  <path d="M55.81 8c-4.547 0-6.933-1.33-9.038-2.502-1.992-1.11-3.714-2.07-7.37-2.07-3.659 0-5.38.96-7.372 2.07C29.925 6.67 27.54 8 22.992 8c-4.546 0-6.932-1.33-9.037-2.502-1.992-1.11-3.713-2.07-7.37-2.07-1.676 0-3.051.2-4.329.626A1.714 1.714 0 011.171.803C2.786.263 4.557 0 6.585 0c4.547 0 6.932 1.33 9.037 2.502 1.992 1.11 3.713 2.07 7.37 2.07 3.658 0 5.379-.96 7.371-2.07C32.468 1.33 34.855 0 39.401 0c4.547 0 6.933 1.33 9.038 2.502 1.992 1.11 3.713 2.07 7.371 2.07 3.658 0 5.38-.96 7.373-2.07C65.288 1.33 67.674 0 72.22 0c2.611 0 4.697.41 6.761 1.327a1.715 1.715 0 01-1.39 3.134c-1.082-.481-2.668-1.032-5.37-1.032-3.659 0-5.38.958-7.373 2.069C62.743 6.67 60.357 8 55.81 8z" fill="currentColor"/>
</svg>
