<svg viewBox="0 0 48 48">
  <mask id="mask0" mask-type="alpha" maskUnits="userSpaceOnUse" x="7" y="0" width="32" height="48">
    <path d="M7.38452 0.936195H38.7369V47.5385H7.38452V0.936195Z" fill="white"/>
  </mask>
  <g mask="url(#mask0)">
    <path d="M18.0651 3.154C18.0651 3.154 4.73575 15.6905 7.85852 31.0917C10.9813 46.4928 26.2565 50.3972 33.0285 45.6249C39.8005 40.8526 40.4975 31.5013 35.3848 23.5954C30.2717 15.6905 35.3935 13.9546 34.5754 7.66437C33.7579 1.37359 21.895 -1.31931 18.0651 3.154Z" fill="#FFC024"/>
  </g>
  <mask id="mask1" mask-type="alpha" maskUnits="userSpaceOnUse" x="9" y="0" width="31" height="48">
    <path d="M9.74902 0.325005H39.8268V47.5H9.74902V0.325005Z" fill="white"/>
  </mask>
  <g mask="url(#mask1)">
    <path d="M19.9951 2.5699C19.9951 2.5699 7.20788 15.2599 10.2038 30.8509C13.1992 46.4414 27.8537 50.3939 34.3501 45.5629C40.8466 40.7319 41.5162 31.2654 36.6109 23.2629C31.7051 15.2599 36.619 13.5034 35.8346 7.1354C35.0497 0.7679 23.6693 -1.9586 19.9951 2.5699Z" fill="#FF4E42"/>
  </g>
  <path d="M21.9805 17.547C24.7145 17.547 26.883 17.8872 29.2389 18.6487C29.2696 18.6607 30.3892 19.1176 31.08 18.7288C31.3721 18.565 31.5461 18.2704 31.6125 17.8291C31.7326 17.027 31.9327 16.303 32.1263 15.6027C32.522 14.1708 32.895 12.8182 32.6517 10.8162C32.3611 8.437 30.0428 6.96258 27.9694 6.37592C25.7779 5.7562 22.9569 5.89046 21.5954 7.58832C21.5547 7.6314 19.2681 9.94848 17.2656 13.6157C17.2057 13.8798 16.797 15.8567 17.6844 16.9243C18.1087 17.4343 18.7904 17.6647 19.6919 17.6161C20.5034 17.5705 21.2615 17.547 21.9805 17.547ZM30.3872 19.3846C29.714 19.3846 29.1011 19.1336 29.0639 19.1176C26.1348 18.1722 23.5964 17.8982 19.7205 18.1161C18.6456 18.1787 17.8276 17.8832 17.2962 17.2429C16.1881 15.9067 16.7598 13.5636 16.7844 13.4649L16.8075 13.4063C18.8503 9.6554 21.1972 7.2792 21.2208 7.25566C22.7085 5.39849 25.7552 5.22865 28.1072 5.89396C30.3354 6.52471 32.8306 8.13289 33.1504 10.7561C33.4063 12.8557 33.0021 14.3201 32.6109 15.7359C32.4214 16.4218 32.2253 17.1312 32.1092 17.9032C32.0202 18.4994 31.7562 18.9247 31.3254 19.1662C31.0353 19.329 30.7044 19.3846 30.3872 19.3846Z" fill="#1820EF"/>
  <path d="M18.2627 22.6561C17.8813 22.6561 17.5004 22.6752 17.1205 22.7169C16.0396 22.8353 15.2202 23.3046 14.6856 24.1107C13.0002 26.6506 14.5333 31.7292 14.549 31.7804C15.9739 36.1077 19.1827 39.3989 23.3526 40.8059C26.6596 41.9202 30.0879 41.6787 32.3023 40.1769C37.0741 36.9389 37.7792 30.4819 33.9786 24.824C33.9745 24.824 32.7925 23.5521 31.6175 23.5496H31.6144C31.1734 23.5496 30.796 23.7268 30.4607 24.0917C29.397 25.2466 27.3318 24.6458 24.7178 23.8864C22.7163 23.3046 20.4862 22.6561 18.2627 22.6561ZM27.4522 42C26.0723 42 24.6186 41.7626 23.1902 41.2807C18.8681 39.8231 15.5424 36.4154 14.0665 31.9315C13.9982 31.7097 12.4474 26.5728 14.2627 23.8357C14.8839 22.8981 15.8272 22.354 17.0654 22.2179C19.7614 21.9218 22.47 22.7093 24.8599 23.4045C27.2089 24.0872 29.2372 24.6775 30.0874 23.7529C30.5179 23.2851 31.0318 23.0476 31.6145 23.0476H31.62C33.0267 23.0517 34.3225 24.4566 34.3767 24.5163C38.3604 30.4428 37.5992 37.1909 32.5876 40.591C31.2133 41.5232 29.4076 42 27.4522 42Z" fill="#1820EF"/>
</svg>
