<svg viewBox="0 0 125 16">
  <path d="M96.748 9.727c0-1.04-.834-1.883-1.863-1.883-1.03 0-1.864.843-1.864 1.883v2.249c-.71.33-1.469.494-2.278.494-.823 0-1.554-.182-2.193-.548a3.837 3.837 0 01-1.49-1.528c-.356-.652-.533-1.395-.533-2.227 0-1.305.39-2.35 1.17-3.131.782-.782 1.811-1.173 3.089-1.173.938 0 1.787.25 2.549.748.706.462 1.62.427 2.245-.143.899-.821.76-2.29-.278-2.92a7.85 7.85 0 00-.982-.504c-1.107-.472-2.356-.71-3.747-.71-1.59 0-3.018.334-4.28 1.001-1.264.666-2.25 1.596-2.96 2.787-.71 1.19-1.065 2.538-1.065 4.045 0 1.506.355 2.855 1.065 4.045A7.398 7.398 0 0086.27 15C87.52 15.665 88.926 16 90.487 16c1.108 0 2.216-.165 3.323-.495 1.107-.33 2.087-.804 2.938-1.42V9.726zm-89.8-5.719c-.465.06-.896.163-1.295.306-.684.248-1.239.62-1.665 1.114 0-.72-.641-1.304-1.432-1.304H1.432C.642 4.124 0 4.708 0 5.428v7.666C0 14.147.937 15 2.093 15c1.157 0 2.095-.853 2.095-1.906v-3.09c0-.91.252-1.585.76-2.027.506-.442 1.207-.663 2.104-.663h.008c.517 0 .94-.384.94-.855V4.84c0-.51-.497-.904-1.051-.833zm11.174 8.07c-.149.444-.394.78-.734 1.008a2.071 2.071 0 01-1.184.343c-.45 0-.804-.108-1.061-.321-.259-.215-.388-.5-.388-.858 0-.785.564-1.179 1.694-1.179h1.673v1.007zM22 9.358c0-1.815-.482-3.162-1.45-4.04C19.586 4.437 18.185 4 16.347 4c-.883 0-1.764.117-2.642.353a8.73 8.73 0 00-.752.238c-.831.305-1.23 1.294-.839 2.122.325.687 1.09 1.03 1.774.761a5.169 5.169 0 011.888-.367c1.497 0 2.28.614 2.347 1.843h-2.204c-1.673 0-2.912.304-3.714.91C11.4 10.468 11 11.322 11 12.423c0 .686.16 1.296.48 1.832.32.535.791.961 1.417 1.275.626.314 1.368.471 2.226.471 1.618 0 2.706-.564 3.264-1.693 0 .829.64 1.5 1.43 1.5h.754c.789 0 1.429-.671 1.429-1.5v-4.95zm22.778-4.052C45.593 6.178 46 7.49 46 9.248v4.683C46 15.074 45.127 16 44.05 16c-1.079 0-1.952-.927-1.952-2.069V9.923c0-.827-.148-1.438-.442-1.829-.295-.392-.709-.588-1.243-.588-.589 0-1.062.218-1.418.653-.355.436-.533 1.096-.533 1.982v3.79c0 1.143-.874 2.069-1.951 2.069-1.078 0-1.952-.927-1.952-2.069V9.923c0-1.61-.561-2.417-1.684-2.417-.603 0-1.082.218-1.438.653-.356.436-.534 1.096-.534 1.982v3.79c0 1.143-.874 2.069-1.952 2.069C27.873 16 27 15.073 27 13.931V4.579c0-.212.162-.383.361-.383h2.995c.2 0 .362.17.362.383 0 .316.337.492.577.304.272-.213.569-.388.891-.525A4.749 4.749 0 0134.046 4c.78 0 1.478.152 2.095.457.616.304 1.115.77 1.5 1.393a4.361 4.361 0 011.663-1.371A5.045 5.045 0 0141.502 4c1.369 0 2.462.435 3.276 1.306zm9.812 2.133l.012-.011c.401-.357.9-.536 1.5-.536.599 0 1.099.18 1.5.536l.013.011c.545.495.166 1.447-.555 1.447h-1.917c-.72 0-1.1-.954-.553-1.447zm-.693 3.59h7.106c.535 0 .99-.445.997-1.007 0-1.243-.262-2.319-.786-3.226a5.302 5.302 0 00-2.133-2.078c-.898-.48-1.897-.718-3-.718-1.156 0-2.197.256-3.123.771a5.61 5.61 0 00-2.173 2.133C50.26 7.81 50 8.835 50 9.978c0 1.157.268 2.194.806 3.108.537.915 1.295 1.63 2.275 2.143.98.515 2.116.771 3.408.771 1.216 0 2.26-.216 3.132-.65.918-.457 1.119-1.742.414-2.512-.465-.508-1.185-.61-1.788-.3a3.14 3.14 0 01-.257.12c-.388.157-.847.236-1.378.236-.708 0-1.296-.162-1.765-.483-.47-.321-.786-.782-.95-1.383zm22.824-5.723C77.573 6.178 78 7.49 78 9.248v4.683C78 15.074 77.116 16 76.024 16c-1.091 0-1.975-.927-1.975-2.069V9.923c0-1.61-.618-2.417-1.851-2.417-.68 0-1.224.232-1.633.697-.409.464-.614 1.162-.614 2.09v3.638c0 1.143-.884 2.069-1.975 2.069C66.885 16 66 15.073 66 13.931V4.196h3.764V5.48a4.47 4.47 0 011.58-1.1A5.136 5.136 0 0173.342 4c1.4 0 2.528.435 3.38 1.306zm34.253 6.8a3.707 3.707 0 001.399-1.453c.342-.625.514-1.342.514-2.153 0-.81-.172-1.528-.514-2.153a3.717 3.717 0 00-1.399-1.453A3.855 3.855 0 00109 4.38a3.85 3.85 0 00-1.974.515 3.703 3.703 0 00-1.399 1.453c-.342.625-.514 1.343-.514 2.153s.172 1.528.514 2.153c.342.626.81 1.11 1.399 1.453a3.85 3.85 0 001.974.515c.726 0 1.384-.172 1.974-.515zm-6.077 2.925a7.273 7.273 0 01-2.859-2.678C101.346 11.213 101 9.93 101 8.5c0-1.429.346-2.712 1.038-3.853.693-1.14 1.646-2.032 2.859-2.678C106.11 1.323 107.478 1 109 1c1.521 0 2.889.323 4.103.969 1.213.646 2.166 1.538 2.858 2.678C116.653 5.787 117 7.07 117 8.5c0 1.429-.347 2.713-1.039 3.853a7.264 7.264 0 01-2.858 2.678c-1.214.646-2.582.969-4.103.969-1.522 0-2.89-.323-4.103-.969zm19.797-13.825h-4.442l.728 9.22h2.967l.747-9.22zm-4.461 12.51a2.182 2.182 0 00.483 1.388c.438.528 1.023.792 1.757.792.669 0 1.217-.229 1.644-.685.379-.404.586-.97.577-1.537-.01-.6-.217-1.096-.619-1.487-.413-.4-.946-.6-1.602-.6-.655 0-1.192.2-1.611.6-.419.4-.628.91-.629 1.53z" fill="currentColor"/>
</svg>
