<svg width="48" height="48" viewBox="0 0 48 48">
<path d="M44.6284 0.510364L0.957356 13.4135C0.594813 13.5206 0.385155 13.899 0.487245 14.2635C0.589335 14.6294 0.967316 14.8442 1.33384 14.745L45.2763 2.80014C45.9133 2.62714 46.2873 1.96708 46.1095 1.33095C45.9307 0.691831 45.2639 0.322915 44.6284 0.510364Z" fill="#1820EF"/>
<mask id="mask0" mask-type="alpha" maskUnits="userSpaceOnUse" x="0" y="11" width="48" height="6">
<path d="M0.461426 11.0027H47.9693V16.4285H0.461426V11.0027Z" fill="white"/>
</mask>
<g mask="url(#mask0)">
<path d="M46.6693 11.0075L1.09493 15.0435C0.716121 15.077 0.434894 15.408 0.463417 15.7865C0.49194 16.1665 0.821707 16.4525 1.20251 16.427L46.8545 13.387C47.516 13.343 48.0149 12.7685 47.9664 12.1075C47.9163 11.444 47.3328 10.9485 46.6693 11.0075Z" fill="#1820EF"/>
</g>
<path d="M4.12191 17.5457C4.62506 18.077 4.92825 18.3982 4.92825 19.142C4.92825 19.8852 4.62506 20.2065 4.12191 20.7377C3.55044 21.3413 2.76904 22.1674 2.76904 23.7058C2.76904 25.2447 3.55044 26.0707 4.12141 26.6743C4.62456 27.2061 4.92825 27.5273 4.92825 28.2711C4.92825 29.0158 4.62456 29.3371 4.12141 29.8688C3.55044 30.4724 2.76904 31.299 2.76904 32.8379C2.76904 34.3768 3.55044 35.2029 4.12141 35.8064C4.62456 36.3382 4.92825 36.6594 4.92825 37.4037C4.92825 38.149 4.62456 38.4702 4.12141 39.0025C3.55044 39.6065 2.76904 40.4331 2.76904 41.972C2.76904 43.5114 3.55044 44.338 4.12141 44.9415C4.62456 45.4743 4.92825 45.7955 4.92825 46.5408C4.92825 47.0915 5.37505 47.5385 5.92557 47.5385C6.47659 47.5385 6.92289 47.0915 6.92289 46.5408C6.92289 45.0014 6.14149 44.1748 5.57052 43.5708C5.06737 43.0385 4.76369 42.7173 4.76369 41.972C4.76369 41.2272 5.06737 40.906 5.57052 40.3732C6.14149 39.7697 6.92289 38.9431 6.92289 37.4037C6.92289 35.8648 6.14149 35.0382 5.57052 34.4352C5.06737 33.9034 4.76369 33.5822 4.76369 32.8379C4.76369 32.0936 5.06737 31.7724 5.57052 31.2401C6.14149 30.6365 6.92289 29.81 6.92289 28.2711C6.92289 26.7327 6.14149 25.9061 5.57052 25.303C5.06737 24.7708 4.76369 24.45 4.76369 23.7058C4.76369 22.962 5.06737 22.6413 5.57002 22.1095C6.14149 21.5064 6.92289 20.6804 6.92289 19.142C6.92289 17.9438 6.44916 17.1806 5.96995 16.6154L3.46916 16.782C3.68359 17.0798 3.91596 17.3282 4.12191 17.5457Z" fill="#FFC024"/>
<path d="M5.56644 13.3058C6.13942 12.6861 6.92289 11.8367 6.92289 10.2559C6.92289 9.69003 6.47491 9.23076 5.92293 9.23076C5.37045 9.23076 4.92296 9.69003 4.92296 10.2559C4.92296 11.0202 4.61847 11.3503 4.11449 11.8962C3.56401 12.4918 2.82704 13.3058 2.76904 14.7692L4.78797 14.5862C4.87297 14.0639 5.14995 13.7569 5.56644 13.3058Z" fill="#FFC024"/>
<path d="M7.81413 17.792C8.31722 18.3276 8.62087 18.6507 8.62087 19.3997C8.62087 20.1483 8.31722 20.4714 7.81413 21.007C7.24323 21.6149 6.46143 22.4469 6.46143 23.9963C6.46143 25.5462 7.24323 26.3782 7.81413 26.9862C8.31722 27.5217 8.62087 27.8453 8.62087 28.5944C8.62087 29.3445 8.31722 29.668 7.81413 30.2036C7.24323 30.8115 6.46143 31.644 6.46143 33.1939C6.46143 34.7439 7.24323 35.5759 7.81413 36.1838C8.31722 36.7194 8.62087 37.0429 8.62087 37.7925C8.62087 38.5426 8.31722 38.8667 7.81363 39.4027C7.24273 40.0107 6.46143 40.8437 6.46143 42.3936C6.46143 43.944 7.24273 44.7765 7.81363 45.3845C8.31722 45.921 8.62087 46.2446 8.62087 46.9952C8.62087 47.5498 9.06761 48 9.61807 48C10.169 48 10.6153 47.5498 10.6153 46.9952C10.6153 45.4447 9.83396 44.6117 9.26257 44.0038C8.75948 43.4678 8.45583 43.1442 8.45583 42.3936C8.45583 41.6435 8.75948 41.3199 9.26257 40.7839C9.83396 40.1755 10.6153 39.343 10.6153 37.7925C10.6153 36.2426 9.83347 35.4101 9.26257 34.8022C8.75948 34.2671 8.45583 33.9435 8.45583 33.1939C8.45583 32.4444 8.75948 32.1208 9.26257 31.5847C9.83396 30.9768 10.6153 30.1443 10.6153 28.5944C10.6153 27.0449 9.83347 26.2124 9.26257 25.6045C8.75948 25.069 8.45583 24.7459 8.45583 23.9963C8.45583 23.2472 8.75948 22.9242 9.26257 22.3886C9.83347 21.7812 10.6153 20.9492 10.6153 19.3997C10.6153 18.0161 9.99252 17.2057 9.45253 16.6154L7.0049 16.7797C7.25719 17.1917 7.55586 17.5172 7.81413 17.792Z" fill="#FFC024"/>
<path d="M9.25209 13.2151C9.82741 12.6092 10.6153 11.7787 10.6153 10.2331C10.6153 9.67981 10.1651 9.23076 9.61035 9.23076C9.05513 9.23076 8.60543 9.67981 8.60543 10.2331C8.60543 10.9804 8.29943 11.3026 7.79245 11.8369C7.28446 12.3721 6.61216 13.0843 6.46143 14.3077L8.56372 14.1222C8.69788 13.7995 8.93554 13.5484 9.25209 13.2151Z" fill="#FFC024"/>
<path d="M11.5065 17.5565C12.0096 18.0881 12.3133 18.4087 12.3133 19.1522C12.3133 19.8952 12.0096 20.2159 11.5065 20.7474C10.9356 21.3508 10.1538 22.1766 10.1538 23.7144C10.1538 25.2527 10.9356 26.0785 11.5065 26.6819C12.0096 27.2134 12.3133 27.5346 12.3133 28.278C12.3133 29.0225 12.0096 29.3437 11.5065 29.8752C10.9356 30.4786 10.1538 31.3049 10.1538 32.8432C10.1538 34.3815 10.9356 35.2073 11.5065 35.8107C12.0096 36.3422 12.3133 36.6634 12.3133 37.4074C12.3133 38.1518 12.0096 38.4735 11.506 39.0055C10.9351 39.6089 10.1538 40.4357 10.1538 41.974C10.1538 43.5128 10.9351 44.3391 11.506 44.9425C12.0096 45.475 12.3133 45.7962 12.3133 46.5412C12.3133 47.0917 12.76 47.5385 13.3105 47.5385C13.8614 47.5385 14.3077 47.0917 14.3077 46.5412C14.3077 45.0023 13.5263 44.1756 12.9549 43.5722C12.4519 43.0401 12.1482 42.719 12.1482 41.974C12.1482 41.2295 12.4519 40.9084 12.9549 40.3763C13.5263 39.7725 14.3077 38.9462 14.3077 37.4074C14.3077 35.869 13.5258 35.0428 12.9549 34.4394C12.4519 33.9083 12.1482 33.5872 12.1482 32.8432C12.1482 32.0992 12.4519 31.7781 12.9549 31.246C13.5258 30.6427 14.3077 29.8164 14.3077 28.278C14.3077 26.7402 13.5258 25.9139 12.9549 25.3106C12.4519 24.779 12.1482 24.4584 12.1482 23.7144C12.1482 22.9709 12.4519 22.6503 12.9549 22.1187C13.5258 21.5158 14.3077 20.6901 14.3077 19.1522C14.3077 17.6144 13.5258 16.7881 12.9549 16.1853C12.9445 16.1743 12.9355 16.1643 12.9255 16.1538L10.5612 16.3109C10.8359 16.8395 11.2004 17.2324 11.5065 17.5565Z" fill="#FFC024"/>
<path d="M12.9234 13.1123C13.5076 12.522 14.3077 11.713 14.3077 10.2072C14.3077 9.66823 13.8505 9.23076 13.2872 9.23076C12.7234 9.23076 12.2667 9.66823 12.2667 10.2072C12.2667 10.9352 11.956 11.2492 11.4411 11.7696C10.9758 12.2403 10.3793 12.856 10.1538 13.8461L12.429 13.6533C12.5606 13.48 12.7264 13.311 12.9234 13.1123Z" fill="#FFC024"/>
</svg>
