<svg width="48" height="49" viewBox="0 0 48 49">
  <path d="M30.7853 40.4962C31.0766 40.5345 31.3613 40.624 31.6226 40.762L37.8118 44.0251C37.8875 44.0648 37.9406 44.1262 37.983 44.194C38.121 43.8363 38.1723 43.4431 38.1081 43.0453C37.5457 39.5423 36.1152 31.1964 34.8894 24.0444C34.2382 20.2446 33.6447 16.7818 33.2698 14.5614C33.0538 13.2848 31.7984 12.4766 30.5398 12.7794C29.5286 13.0226 28.5621 13.2008 27.6395 13.3291C27.6792 13.3891 27.7096 13.456 27.7184 13.5326L30.7853 40.4962ZM17.5637 40.5565C17.3796 40.6049 17.1996 40.6723 17.0302 40.7618L10.8414 44.0249C10.7976 44.048 10.7643 44.0812 10.7316 44.1149C10.6176 43.7757 10.5834 43.4069 10.6467 43.0372L15.5551 14.708C15.772 13.4341 17.026 12.6038 18.2782 12.9237C18.976 13.1018 19.8285 13.274 20.8143 13.4C20.7959 13.4415 20.7774 13.4831 20.7714 13.5301L17.5637 40.5565ZM11.2041 44.8697C11.2284 44.8645 11.2526 44.8594 11.2754 44.8472L17.4402 41.5966L16.7008 47.8278L11.844 45.3992C11.5823 45.2686 11.3608 45.0867 11.1753 44.8763C11.1848 44.8738 11.1944 44.8718 11.204 44.8697L11.2041 44.8697ZM29.8476 40.4734H18.5099L21.6945 13.6395C21.7005 13.5897 21.6927 13.5421 21.683 13.4955C23.1525 13.6271 24.8778 13.6423 26.8241 13.4291C26.8005 13.4941 26.7871 13.5638 26.7954 13.6372L29.8476 40.4734ZM18.3995 41.4028L17.6001 48.1394C17.6961 48.1523 17.7935 48.1602 17.8904 48.1602H30.7216L29.9532 41.4028H18.3995ZM30.8961 41.4721C30.9962 41.5016 31.0959 41.5353 31.1892 41.5842L37.3779 44.8473C37.4324 44.8759 37.4905 44.8893 37.5482 44.8953C37.3687 45.0914 37.1559 45.2608 36.9072 45.3854L31.827 47.9253C31.7661 47.9557 31.7024 47.9811 31.6396 48.0061L30.8961 41.4721Z" fill="#FAFAED"/>
  <path d="M17.5914 11.4686C19.811 12.22 24.8856 13.4061 31.1214 11.4261C31.9005 11.1792 32.3731 10.4477 32.2217 9.71197C31.8137 7.7315 30.2657 4.15366 24.4079 4.15366C18.5039 4.15366 16.943 7.78735 16.5308 9.75766C16.3785 10.4855 16.8266 11.2092 17.5914 11.4686Z" fill="#FF4E42"/>
  <path d="M25.0584 5.87109C25.0584 6.21356 24.7529 6.49094 24.3758 6.49094C23.9983 6.49094 23.6923 6.21356 23.6923 5.87109C23.6923 5.52909 23.9983 5.25171 24.3758 5.25171C24.7529 5.25171 25.0584 5.52909 25.0584 5.87109ZM22.1769 7.11056C22.1769 7.45256 21.8714 7.7304 21.4943 7.7304C21.1168 7.7304 20.8108 7.45256 20.8108 7.11056C20.8108 6.7681 21.1168 6.49071 21.4943 6.49071C21.8714 6.49071 22.1769 6.7681 22.1769 7.11056ZM27.2572 7.7304C27.6343 7.7304 27.9398 7.45256 27.9398 7.11056C27.9398 6.7681 27.6343 6.49071 27.2572 6.49071C26.8797 6.49071 26.5737 6.7681 26.5737 7.11056C26.5737 7.45256 26.8797 7.7304 27.2572 7.7304Z" fill="#1820EF"/>
  <path d="M24.9233 0.461538C24.9233 0.716192 24.7168 0.923077 24.462 0.923077C24.2069 0.923077 24.0002 0.716192 24.0002 0.461538C24.0002 0.206541 24.2069 0 24.462 0C24.7168 0 24.9233 0.206541 24.9233 0.461538ZM27.6925 2.16277C27.6925 2.41742 27.4861 2.62431 27.2313 2.62431C26.9762 2.62431 26.7694 2.41742 26.7694 2.16277C26.7694 1.90777 26.9762 1.70123 27.2313 1.70123C27.4861 1.70123 27.6925 1.90777 27.6925 2.16277ZM21.6928 2.30769C21.9476 2.30769 22.154 2.10081 22.154 1.84615C22.154 1.59116 21.9476 1.38462 21.6928 1.38462C21.4377 1.38462 21.231 1.59116 21.231 1.84615C21.231 2.10081 21.4377 2.30769 21.6928 2.30769Z" fill="#FAFAED"/>
</svg>
