<svg width="48" height="48" viewBox="0 0 48 48">
  <path d="M30.344 1.57131H32.2543C32.6406 1.57131 32.9544 1.29393 32.9544 0.951466V0.78162C32.9544 0.439158 32.6406 0.161774 32.2543 0.161774H14.0849C13.6975 0.161774 13.3848 0.439158 13.3848 0.78162V0.951466C13.3848 1.29393 13.6975 1.57131 14.0849 1.57131H17.5875L18.4681 3.54449C18.4681 3.54449 24.1223 4.91555 29.4634 3.54449L30.344 1.57131Z" fill="#FFC024"/>
  <path d="M10.2573 28.8585C10.6186 26.3925 11.242 24.1286 11.9921 22.02C15.8716 22.9089 24.1429 24.0852 35.8441 21.9539C36.6049 24.0813 37.2365 26.3669 37.6019 28.8585C38.6923 36.299 37.956 41.163 37.466 43.2878C34.6387 41.9523 29.3116 41.2631 24.0285 41.2631C18.6304 41.2631 13.1899 41.9828 10.4132 43.3761C9.92313 41.2941 9.15359 36.3921 10.2573 28.8585ZM10.6786 44.6376C10.6786 44.6376 10.6544 44.5714 10.6159 44.4472C12.7179 43.3621 17.4585 42.3462 24.0503 42.3462C30.5172 42.3462 35.2023 43.3239 37.3624 44.3856C36.7112 46.3941 30.9715 47.9647 23.985 47.9647C17.2935 47.9647 11.7465 46.5238 10.7171 44.6376H10.6786Z" fill="#FF4E42"/>
  <path d="M35.5387 20.9741C33.1294 14.5196 29.7321 9.47727 28.9763 4.61539C23.3874 6.33709 18.5824 4.61539 18.5824 4.61539C17.8245 9.49115 14.41 14.5488 12.0002 21.0296C15.8848 21.9075 24.1183 23.0715 35.5387 20.9741Z" fill="#FAFAED"/>
  <path d="M35.5041 32.7692C35.2463 32.7692 35.0286 32.5727 35.0103 32.3155C33.9721 18.0635 28.3038 10.0831 28.2463 10.0039C28.0871 9.78382 28.1392 9.47871 28.3618 9.32175C28.5844 9.16479 28.8948 9.21613 29.0529 9.43568C29.2934 9.7672 34.9414 17.7212 35.9989 32.2451C36.0187 32.5145 35.813 32.7487 35.5398 32.7683C35.5279 32.7687 35.516 32.7692 35.5041 32.7692Z" fill="#FAFAED"/>
</svg>
