<svg viewBox="0 0 48 48">
  <path d="M30.3437 1.57131H32.2541C32.6404 1.57131 32.9542 1.29393 32.9542 0.951466V0.78162C32.9542 0.439158 32.6404 0.161774 32.2541 0.161774H14.0846C13.6973 0.161774 13.3845 0.439158 13.3845 0.78162V0.951466C13.3845 1.29393 13.6973 1.57131 14.0846 1.57131H17.5873L18.4679 3.54449C18.4679 3.54449 24.122 4.91555 29.4631 3.54449L30.3437 1.57131Z" fill="#FF4E42"/>
  <path d="M10.2571 28.8585C10.6183 26.3925 11.2418 24.1286 11.9919 22.02C15.8713 22.9089 24.1427 24.0852 35.8438 21.9539C36.6047 24.0813 37.2363 26.3669 37.6016 28.8585C38.6921 36.299 37.9557 41.163 37.4657 43.2878C34.6384 41.9523 29.3113 41.2631 24.0282 41.2631C18.6301 41.2631 13.1896 41.9828 10.4129 43.3761C9.92289 41.2941 9.15334 36.3921 10.2571 28.8585ZM10.6783 44.6376C10.6783 44.6376 10.6542 44.5714 10.6156 44.4472C12.7176 43.3621 17.4582 42.3462 24.05 42.3462C30.517 42.3462 35.202 43.3239 37.3621 44.3856C36.711 46.3941 30.9713 47.9647 23.9848 47.9647C17.2933 47.9647 11.7463 46.5238 10.7169 44.6376H10.6783Z" fill="#1820EF"/>
  <path d="M35.5385 20.9741C33.1292 14.5196 29.7319 9.47727 28.9761 4.61539C23.3872 6.33709 18.5821 4.61539 18.5821 4.61539C17.8242 9.49115 14.4098 14.5488 12 21.0296C15.8846 21.9075 24.1181 23.0715 35.5385 20.9741Z" fill="#FFC024"/>
  <path d="M35.5038 32.7692C35.246 32.7692 35.0284 32.5727 35.01 32.3155C33.9719 18.0635 28.3036 10.0831 28.2461 10.0039C28.0869 9.78382 28.139 9.47871 28.3616 9.32175C28.5842 9.16479 28.8945 9.21613 29.0527 9.43568C29.2931 9.7672 34.9411 17.7212 35.9986 32.2451C36.0185 32.5145 35.8127 32.7487 35.5395 32.7683C35.5276 32.7687 35.5157 32.7692 35.5038 32.7692Z" fill="#FAFAED"/>
</svg>
