<svg viewBox="0 0 48 48">
  <path d="M9.69238 1.9912V46.0362C9.69238 46.866 10.3494 47.5386 11.1601 47.5386H32.5536C33.3643 47.5386 34.0213 46.866 34.0213 46.0362V1.9912C34.0213 1.16135 33.3643 0.488747 32.5536 0.488747H11.1601C10.3494 0.488747 9.69238 1.16135 9.69238 1.9912Z" fill="#FFC024"/>
  <path d="M35.2126 2.33475V46.6156L37.6533 44.7606C37.9939 44.5012 38.2071 43.9939 38.2071 43.4408V6.64355C38.2071 6.20296 38.0714 5.78428 37.8365 5.50051L35.2126 2.33475Z" fill="#FFC024"/>
  <path d="M26.7693 4.15385C26.154 4.15385 26.1534 5.07692 26.7693 5.07692C27.3838 5.07692 27.3851 4.15385 26.7693 4.15385ZM28.1539 14.7692C27.5386 14.7692 27.538 15.6923 28.1539 15.6923C28.7685 15.6923 28.7697 14.7692 28.1539 14.7692ZM13.8459 28.1538C13.2314 28.1538 13.2301 29.0769 13.8459 29.0769C14.4612 29.0769 14.4618 28.1538 13.8459 28.1538ZM15.6923 31.3846C15.0771 31.3846 15.0765 32.3077 15.6923 32.3077C16.3069 32.3077 16.3082 31.3846 15.6923 31.3846ZM23.0767 18.4615C22.4621 18.4615 22.4608 19.3846 23.0767 19.3846C23.6919 19.3846 23.6926 18.4615 23.0767 18.4615ZM36.9231 8.76923C36.3079 8.76923 36.3072 9.69231 36.9231 9.69231C37.5377 9.69231 37.539 8.76923 36.9231 8.76923ZM29.5384 23.5385C28.9236 23.5385 28.9223 24.4615 29.5384 24.4615C30.1531 24.4615 30.1544 23.5385 29.5384 23.5385ZM26.7693 41.0769C26.154 41.0769 26.1534 42 26.7693 42C27.3838 42 27.3851 41.0769 26.7693 41.0769ZM36.4616 40.6154C35.8463 40.6154 35.8457 41.5385 36.4616 41.5385C37.0762 41.5385 37.0774 40.6154 36.4616 40.6154ZM15.2308 8.30769C14.6156 8.30769 14.6149 9.23077 15.2308 9.23077C15.8454 9.23077 15.8467 8.30769 15.2308 8.30769Z" fill="#FAFAED"/>
</svg>
