<svg viewBox="0 0 48 48">
  <path d="M23.9717 4.1269L23.9726 4.12577C24.5367 3.43211 25.2381 2.5697 26.618 2.5697C27.9984 2.5697 28.6998 3.43212 29.264 4.12589L29.2644 4.1264C29.8197 4.81079 30.1696 5.19809 30.8904 5.19809C31.6091 5.19809 31.9581 4.81128 32.5144 4.1269C33.0776 3.43304 33.7789 2.5697 35.1587 2.5697C36.5379 2.5697 37.2388 3.43304 37.8015 4.1269C38.3563 4.81128 38.7057 5.19809 39.424 5.19809C39.4253 5.19809 39.4265 5.19837 39.4276 5.19863C39.4286 5.19886 39.4296 5.19909 39.4305 5.19909V0.317154H22.3403V5.19959L22.3421 5.19898C22.3434 5.19853 22.3446 5.19809 22.3462 5.19809C23.0665 5.19809 23.4164 4.81079 23.9717 4.1269ZM23.9726 11.5796L23.9717 11.5807C23.4164 12.2646 23.0665 12.6519 22.3462 12.6519C22.3449 12.6519 22.3439 12.6523 22.3429 12.6527H22.3429H22.3429C22.342 12.6531 22.3412 12.6534 22.3403 12.6534V6.51085C22.3412 6.51085 22.342 6.51118 22.3429 6.51153C22.3439 6.51193 22.3449 6.51235 22.3462 6.51235C23.7268 6.51235 24.4282 5.64917 24.9919 4.95534L24.9921 4.95515C25.5479 4.27126 25.8973 3.88396 26.618 3.88396C27.3388 3.88396 27.6882 4.27126 28.244 4.95515L28.2442 4.95534C28.8079 5.64917 29.5093 6.51235 30.8904 6.51235C32.2696 6.51235 32.9714 5.64901 33.5347 4.95515C34.09 4.27126 34.4399 3.88396 35.1587 3.88396C35.877 3.88396 36.2264 4.27076 36.7812 4.95515C37.3439 5.64901 38.0443 6.51235 39.424 6.51235C39.4253 6.51235 39.4265 6.51193 39.4276 6.51153C39.4282 6.51132 39.4288 6.51112 39.4294 6.51099C39.4297 6.5109 39.4301 6.51085 39.4305 6.51085V12.6529C39.4296 12.6529 39.4286 12.6527 39.4276 12.6524L39.4272 12.6523L39.4265 12.6522C39.4261 12.6521 39.4257 12.652 39.4253 12.652C39.4249 12.6519 39.4245 12.6519 39.424 12.6519C38.7057 12.6519 38.3563 12.2651 37.8015 11.5807C37.2388 10.8868 36.5379 10.0235 35.1587 10.0235C33.7789 10.0235 33.0776 10.8868 32.5144 11.5807C31.9581 12.2651 31.6091 12.6519 30.8904 12.6519C30.1696 12.6519 29.8197 12.2646 29.2644 11.5802L29.2629 11.5783C28.6989 10.8853 27.9975 10.0235 26.618 10.0235C25.2381 10.0235 24.5367 10.8859 23.9726 11.5796ZM36.7812 12.4087C37.3439 13.1026 38.0443 13.9659 39.424 13.9659C39.4253 13.9659 39.4265 13.9656 39.4276 13.9654C39.4286 13.9651 39.4296 13.9649 39.4305 13.9649V20.107L39.4296 20.1069L39.4276 20.1063C39.427 20.1061 39.4264 20.1058 39.4257 20.1057C39.4252 20.1055 39.4246 20.1055 39.424 20.1055C38.7057 20.1055 38.3563 19.7192 37.8015 19.0343C37.2388 18.3409 36.5379 17.4776 35.1587 17.4776C33.779 17.4776 33.0776 18.3409 32.5144 19.0343L32.5144 19.0343C31.9581 19.7192 31.6091 20.1055 30.8904 20.1055C30.1696 20.1055 29.8197 19.7187 29.2644 19.0343L29.264 19.0338C28.6998 18.34 27.9984 17.4776 26.618 17.4776C25.2386 17.4776 24.5372 18.3393 23.9732 19.0324L23.9717 19.0343C23.4164 19.7187 23.0665 20.1055 22.3462 20.1055C22.3449 20.1055 22.3439 20.1059 22.3429 20.1063L22.3429 20.1063C22.342 20.1066 22.3412 20.107 22.3403 20.107V13.9649C22.3412 13.9649 22.342 13.9651 22.3429 13.9654C22.3439 13.9656 22.3449 13.9659 22.3462 13.9659C23.727 13.9659 24.4283 13.1031 24.9921 12.4092C25.5479 11.7248 25.8973 11.338 26.618 11.338C27.3388 11.338 27.6882 11.7248 28.244 12.4092C28.8078 13.1031 29.5091 13.9659 30.8904 13.9659C32.2696 13.9659 32.9714 13.1026 33.5347 12.4092C34.09 11.7248 34.4399 11.338 35.1587 11.338C35.877 11.338 36.2264 11.7248 36.7812 12.4087ZM35.1588 18.7918C35.8771 18.7918 36.2265 19.1786 36.7813 19.8625L36.7816 19.8629C37.3443 20.5567 38.0447 21.4202 39.4241 21.4202C39.4255 21.4202 39.4268 21.4197 39.4279 21.4193C39.4287 21.419 39.4294 21.4187 39.4301 21.4187V24.8915H22.3398V21.4187C22.3411 21.4187 22.3421 21.4191 22.3431 21.4195C22.3441 21.4198 22.3451 21.4202 22.3463 21.4202C23.7269 21.4202 24.4283 20.557 24.992 19.8632L24.9922 19.863C25.5479 19.1786 25.8974 18.7918 26.6176 18.7918C27.3389 18.7918 27.6883 19.1786 28.2441 19.863L28.2443 19.8632C28.808 20.557 29.5093 21.4202 30.8905 21.4202C32.2693 21.4202 32.9706 20.5569 33.5338 19.8636L33.5343 19.863C34.0901 19.1786 34.44 18.7918 35.1588 18.7918Z" fill="#FAFAED"/>
  <path d="M17.3403 14.9828C17.2471 14.7196 17.1324 14.4634 16.9899 14.2202C16.3483 13.1271 15.1236 12.0275 12.7908 11.9995C11.0961 11.9796 9.97402 12.5389 9.23031 13.2577C7.92285 14.1115 7.86552 16.2245 7.86552 16.2245C7.86552 16.2245 7.86901 16.2255 7.86951 16.2255C7.84309 16.5291 7.83711 16.8341 7.86203 17.1392L10.2337 45.7753C10.3304 46.9427 11.2187 47.8399 12.2904 47.8524C13.3581 47.8648 14.2648 46.9965 14.3944 45.8376L17.5367 17.7657C17.7007 16.2988 17.3403 14.9828 17.3403 14.9828Z" fill="#FF4E42"/>
  <path d="M11.4994 13.1372C11.4994 13.1372 7.30786 3.39575 9.64913 3.48946C11.9904 3.58317 12.0467 7.31515 12.0467 7.31515C12.0467 7.31515 10.7208 -0.68466 13.5735 0.0475802C16.4272 0.779322 13.7844 10.1434 13.7844 10.1434C13.7844 10.1434 15.204 5.25301 16.7024 6.14426C18.2002 7.03601 14.1198 13.0539 14.1198 13.0539C14.1198 13.0539 13.6154 14.3684 11.4994 13.1372Z" fill="#FFC024"/>
  <path d="M12.0431 28.3611C12.3207 28.3532 12.5381 28.1224 12.5306 27.8447C12.5226 27.5671 12.2918 27.3493 12.0137 27.3572C9.77909 27.4225 9.16 27.099 9.09719 27.0612C8.99202 26.9694 8.85743 26.9336 8.72534 26.944L8.81556 28.0357C8.87986 28.0616 8.94865 28.0875 9.0314 28.1134C9.55329 28.2734 10.463 28.408 12.0431 28.3611Z" fill="#FFC024"/>
  <path d="M12.3489 32.5539C12.6265 32.5459 12.8439 32.3146 12.8369 32.0369C12.8279 31.7603 12.5971 31.543 12.3195 31.5495C10.0834 31.6152 9.46629 31.2922 9.40249 31.2539C9.30828 31.1716 9.19065 31.1312 9.07251 31.1312L9.16423 32.2438C9.21856 32.2647 9.2704 32.2857 9.33669 32.3056C9.85908 32.4661 10.7688 32.6007 12.3489 32.5539Z" fill="#FFC024"/>
  <path d="M11.5739 24.3696C11.8516 24.3616 12.0694 24.1303 12.0619 23.8531C12.0535 23.576 11.8232 23.3582 11.5445 23.3657C9.30794 23.4314 8.69134 23.1079 8.62754 23.0696C8.55975 23.0102 8.479 22.9803 8.39575 22.9634L8.48996 24.0954C8.51488 24.1044 8.53432 24.1128 8.56174 24.1213C9.08413 24.2818 9.99332 24.4159 11.5739 24.3696Z" fill="#FFC024"/>
  <path d="M38.4456 31.9H23.3243C22.7805 31.9 22.3398 31.4594 22.3398 30.9156V27.4493C22.3398 26.905 22.7805 26.4648 23.3243 26.4648H38.4456C38.99 26.4648 39.4306 26.905 39.4306 27.4493V30.9156C39.4306 31.4594 38.99 31.9 38.4456 31.9Z" fill="#FFC024"/>
  <path d="M37.4595 28.6382H31.2063C31.0687 28.6382 30.957 28.5265 30.957 28.3889C30.957 28.2513 31.0687 28.1397 31.2063 28.1397H37.4595C37.597 28.1397 37.7087 28.2513 37.7087 28.3889C37.7087 28.5265 37.597 28.6382 37.4595 28.6382Z" fill="#1820EF"/>
  <path d="M33.3544 30.1438H24.2744C24.1368 30.1438 24.0251 30.0321 24.0251 29.8946C24.0251 29.757 24.1368 29.6453 24.2744 29.6453H33.3544C33.4919 29.6453 33.6036 29.757 33.6036 29.8946C33.6036 30.0321 33.4919 30.1438 33.3544 30.1438Z" fill="#1820EF"/>
  <path d="M38.4456 38.955H23.3243C22.7805 38.955 22.3398 38.5139 22.3398 37.97V34.5037C22.3398 33.9599 22.7805 33.5193 23.3243 33.5193H38.4456C38.99 33.5193 39.4306 33.9599 39.4306 34.5037V37.97C39.4306 38.5139 38.99 38.955 38.4456 38.955Z" fill="#FFC024"/>
  <path d="M30.311 35.6926H24.0578C23.9202 35.6926 23.8086 35.5809 23.8086 35.4433C23.8086 35.3058 23.9202 35.1941 24.0578 35.1941H30.311C30.4486 35.1941 30.5603 35.3058 30.5603 35.4433C30.5603 35.5809 30.4486 35.6926 30.311 35.6926Z" fill="#1820EF"/>
  <path d="M37.8946 37.1981H28.8147C28.6771 37.1981 28.5654 37.0865 28.5654 36.9489C28.5654 36.8113 28.6771 36.6997 28.8147 36.6997H37.8946C38.0322 36.6997 38.1439 36.8113 38.1439 36.9489C38.1439 37.0865 38.0322 37.1981 37.8946 37.1981Z" fill="#1820EF"/>
  <path d="M24.7621 44.7204C23.816 44.7204 23.0489 43.9537 23.0489 43.0071C23.0489 42.0616 23.816 41.2949 24.7621 41.2949C25.7077 41.2949 26.4753 42.0616 26.4753 43.0071C26.4753 43.9537 25.7077 44.7204 24.7621 44.7204ZM24.7621 40.5851C23.4243 40.5851 22.3396 41.6698 22.3396 43.0072C22.3396 44.3455 23.4243 45.4302 24.7621 45.4302C26.1 45.4302 27.1841 44.3455 27.1841 43.0072C27.1841 41.6698 26.1 40.5851 24.7621 40.5851ZM30.8848 47.1425C29.9392 47.1425 29.1721 46.3759 29.1721 45.4298C29.1721 44.4837 29.9392 43.7171 30.8848 43.7171C31.8309 43.7171 32.598 44.4837 32.598 45.4298C32.598 46.3759 31.8309 47.1425 30.8848 47.1425ZM30.8848 43.0073C29.5469 43.0073 28.4628 44.092 28.4628 45.4298C28.4628 46.7677 29.5469 47.8524 30.8848 47.8524C32.2232 47.8524 33.3073 46.7677 33.3073 45.4298C33.3073 44.092 32.2232 43.0073 30.8848 43.0073ZM35.2948 43.0071C35.2948 43.9537 36.0619 44.7204 37.008 44.7204C37.9536 44.7204 38.7207 43.9537 38.7207 43.0071C38.7207 42.0616 37.9536 41.2949 37.008 41.2949C36.0619 41.2949 35.2948 42.0616 35.2948 43.0071ZM34.5855 43.0072C34.5855 41.6698 35.6696 40.5851 37.008 40.5851C38.3459 40.5851 39.43 41.6698 39.43 43.0072C39.43 44.3455 38.3459 45.4302 37.008 45.4302C35.6696 45.4302 34.5855 44.3455 34.5855 43.0072Z" fill="#FFC024"/>
</svg>
