<svg width="49" height="48" viewBox="0 0 49 48">
<path d="M4.31289 19.23L15.1024 46.1921C15.542 47.2912 16.6661 47.8938 17.7058 47.5882C18.7405 47.2836 19.3594 46.1758 19.14 45.0173L13.8453 16.9647L3.93872 17.6247C3.97883 18.1725 4.10727 18.7158 4.31289 19.23Z" fill="#FF4E42"/>
<mask id="mask0" mask-type="alpha" maskUnits="userSpaceOnUse" x="0" y="0" width="47" height="16">
<path d="M0.0209961 0.969498H46.6031V15.5399H0.0209961V0.969498Z" fill="white"/>
</mask>
<g mask="url(#mask0)">
<path d="M45.0476 1.01909L0.526579 14.1592C0.156979 14.2683 -0.0567593 14.6537 0.0473177 15.0248C0.151395 15.3974 0.537241 15.6163 0.910395 15.5152L45.7087 3.35092C46.3575 3.17475 46.7393 2.50257 46.558 1.85475C46.3753 1.20389 45.696 0.828197 45.0476 1.01909Z" fill="#FFC024"/>
</g>
<mask id="mask1" mask-type="alpha" maskUnits="userSpaceOnUse" x="0" y="11" width="49" height="7">
<path d="M0 11.8208H48.1998V17.3301H0V11.8208Z" fill="white"/>
</mask>
<g mask="url(#mask1)">
<path d="M46.8811 11.8256L0.642481 15.9237C0.258665 15.9577 -0.0271657 16.2938 0.00177279 16.6781C0.0307113 17.064 0.365281 17.3544 0.751634 17.3285L47.0684 14.2417C47.7396 14.197 48.2463 13.6137 48.1965 12.9425C48.1462 12.2688 47.5543 11.7657 46.8811 11.8256Z" fill="#FFC024"/>
</g>
<path d="M6.63963 14.2843C6.63963 14.2843 -0.301026 6.11651 1.98917 5.51235C4.27887 4.90871 5.44047 8.49707 5.44047 8.49707C5.44047 8.49707 1.78508 1.16143 4.75914 1.02232C7.7332 0.883214 7.95913 10.7137 7.95913 10.7137C7.95913 10.7137 7.8784 5.5682 9.59085 5.98451C11.3033 6.40132 9.14611 13.4263 9.14611 13.4263C9.14611 13.4263 9.04914 14.8458 6.63963 14.2843Z" fill="#1820EF"/>
<path d="M10.6059 26.4909C10.8714 26.4011 11.0136 26.1127 10.9237 25.8472C10.8334 25.5817 10.546 25.4395 10.2795 25.5294C8.14056 26.2559 7.44604 26.1269 7.37395 26.1091C7.2455 26.0513 7.10487 26.0569 6.97998 26.1066L7.39172 27.1342C7.46178 27.1398 7.5354 27.1448 7.62272 27.1448C8.17458 27.1448 9.0935 27.0047 10.6059 26.4909Z" fill="#1820EF"/>
<path d="M12.1455 30.4506C12.411 30.3607 12.5531 30.0723 12.4633 29.8063C12.3729 29.5418 12.0856 29.4001 11.819 29.489C9.67858 30.2165 8.98609 30.0871 8.91349 30.0688C8.79824 30.017 8.67183 30.0129 8.55811 30.048L8.97746 31.0958C9.03534 31.0999 9.0922 31.105 9.16175 31.105C9.71412 31.105 10.633 30.9643 12.1455 30.4506Z" fill="#1820EF"/>
<path d="M8.96831 22.7737C9.23384 22.6839 9.37599 22.3955 9.28613 22.13C9.19576 21.8645 8.90891 21.7228 8.64187 21.8122C6.50093 22.5397 5.80844 22.4102 5.73584 22.392C5.65308 22.3549 5.56627 22.3498 5.48047 22.3584L5.90744 23.4241C5.93435 23.4251 5.95516 23.4282 5.98461 23.4282C6.53647 23.4282 7.45539 23.2875 8.96831 22.7737Z" fill="#1820EF"/>
<path d="M12.2653 13.7012C11.3215 12.8356 9.81163 12.136 7.54935 12.8021C5.90595 13.2859 4.98804 14.1586 4.4834 15.074L12.8299 14.3338C12.6613 14.1073 12.4755 13.8936 12.2653 13.7012Z" fill="#FF4E42"/>
</svg>
