<svg viewBox="0 0 48 48">
  <path fill-rule="evenodd" clip-rule="evenodd" d="M44.6282 0.971912L0.957353 13.875C0.594812 13.9822 0.385155 14.3606 0.487245 14.725C0.589334 15.0909 0.967811 15.3058 1.33384 15.2066L45.276 3.26168C45.913 3.08869 46.287 2.42863 46.1097 1.7925C45.9304 1.15338 45.2641 0.784463 44.6282 0.971912Z" fill="#FAFAED"/>
  <path fill-rule="evenodd" clip-rule="evenodd" d="M4.56633 47.5385C4.28408 47.5385 4.05594 47.3131 4.05594 47.0354C4.05594 46.0835 3.62976 45.6392 3.09028 45.0768C2.50741 44.469 1.84595 43.7798 1.84595 42.4274C1.84595 41.0756 2.50741 40.3863 3.09028 39.7781C3.62976 39.2161 4.05594 38.7718 4.05594 37.82C4.05594 36.8686 3.62976 36.4254 3.09028 35.8634C2.50741 35.2556 1.84595 34.5664 1.84595 33.215C1.84595 31.8632 2.50741 31.1744 3.09028 30.5667C3.62976 30.0042 4.05594 29.5605 4.05594 28.6091C4.05594 27.6582 3.62976 27.215 3.09028 26.653C2.50741 26.0453 1.84595 25.356 1.84595 24.0047C1.84595 22.6538 2.50741 21.9651 3.09028 21.3573C3.62976 20.7959 4.05594 20.3521 4.05594 19.4018C4.05594 18.4514 3.62976 18.0076 3.09028 17.4462C2.50741 16.8384 1.84595 16.1497 1.84595 14.7983C1.84595 13.4475 2.50741 12.7587 3.09028 12.151C3.62976 11.5895 4.05594 11.1458 4.05594 10.1954C4.05594 9.9177 4.28408 9.69231 4.56633 9.69231C4.84857 9.69231 5.07672 9.9177 5.07672 10.1954C5.07672 11.5463 4.41525 12.235 3.83239 12.8428C3.2929 13.4042 2.86673 13.848 2.86673 14.7983C2.86673 15.7487 3.2929 16.1924 3.83239 16.7544C4.41525 17.3622 5.07672 18.0504 5.07672 19.4018C5.07672 20.7526 4.41525 21.4413 3.83239 22.0491C3.2929 22.6106 2.86673 23.0543 2.86673 24.0047C2.86673 24.9555 3.2929 25.3993 3.83239 25.9612C4.41525 26.569 5.07672 27.2578 5.07672 28.6091C5.07672 29.9609 4.41525 30.6502 3.83239 31.2579C3.2929 31.8199 2.86673 32.2642 2.86673 33.215C2.86673 34.1659 3.2929 34.6096 3.83239 35.1716C4.41525 35.7794 5.07672 36.4686 5.07672 37.82C5.07672 39.1723 4.41525 39.8616 3.83239 40.4693C3.2929 41.0318 2.86673 41.476 2.86673 42.4274C2.86673 43.3793 3.2929 43.8235 3.83239 44.3855C4.41525 44.9938 5.07672 45.683 5.07672 47.0354C5.07672 47.3131 4.84857 47.5385 4.56633 47.5385Z" fill="#FFC024"/>
  <path fill-rule="evenodd" clip-rule="evenodd" d="M6.87419 47.5385C6.59194 47.5385 6.3638 47.3131 6.3638 47.0354C6.3638 46.0835 5.93762 45.6392 5.39814 45.0768C4.81527 44.469 4.15381 43.7798 4.15381 42.4274C4.15381 41.0756 4.81527 40.3863 5.39814 39.7781C5.93762 39.2161 6.3638 38.7718 6.3638 37.82C6.3638 36.8686 5.93762 36.4254 5.39814 35.8634C4.81527 35.2556 4.15381 34.5664 4.15381 33.215C4.15381 31.8632 4.81527 31.1744 5.39814 30.5667C5.93762 30.0042 6.3638 29.5605 6.3638 28.6091C6.3638 27.6582 5.93762 27.215 5.39814 26.653C4.81527 26.0453 4.15381 25.356 4.15381 24.0047C4.15381 22.6538 4.81527 21.9651 5.39814 21.3573C5.93762 20.7959 6.3638 20.3521 6.3638 19.4018C6.3638 18.4514 5.93762 18.0076 5.39814 17.4462C4.81527 16.8384 4.15381 16.1497 4.15381 14.7983C4.15381 13.4475 4.81527 12.7587 5.39814 12.151C5.93762 11.5895 6.3638 11.1458 6.3638 10.1954C6.3638 9.9177 6.59194 9.69231 6.87419 9.69231C7.15643 9.69231 7.38458 9.9177 7.38458 10.1954C7.38458 11.5463 6.72311 12.235 6.14025 12.8428C5.60076 13.4042 5.17459 13.848 5.17459 14.7983C5.17459 15.7487 5.60076 16.1924 6.14025 16.7544C6.72311 17.3622 7.38458 18.0504 7.38458 19.4018C7.38458 20.7526 6.72311 21.4413 6.14025 22.0491C5.60076 22.6106 5.17459 23.0543 5.17459 24.0047C5.17459 24.9555 5.60076 25.3993 6.14025 25.9612C6.72311 26.569 7.38458 27.2578 7.38458 28.6091C7.38458 29.9609 6.72311 30.6502 6.14025 31.2579C5.60076 31.8199 5.17459 32.2642 5.17459 33.215C5.17459 34.1659 5.60076 34.6096 6.14025 35.1716C6.72311 35.7794 7.38458 36.4686 7.38458 37.82C7.38458 39.1723 6.72311 39.8616 6.14025 40.4693C5.60076 41.0318 5.17459 41.476 5.17459 42.4274C5.17459 43.3793 5.60076 43.8235 6.14025 44.3855C6.72311 44.9938 7.38458 45.683 7.38458 47.0354C7.38458 47.3131 7.15643 47.5385 6.87419 47.5385Z" fill="#FFC024"/>
  <path fill-rule="evenodd" clip-rule="evenodd" d="M9.18181 47.5385C8.89956 47.5385 8.67142 47.3131 8.67142 47.0354C8.67142 46.0835 8.24524 45.6392 7.70576 45.0768C7.12289 44.469 6.46143 43.7798 6.46143 42.4274C6.46143 41.0756 7.12289 40.3863 7.70576 39.7781C8.24524 39.2161 8.67142 38.7718 8.67142 37.82C8.67142 36.8686 8.24524 36.4254 7.70576 35.8634C7.12289 35.2556 6.46143 34.5664 6.46143 33.215C6.46143 31.8632 7.12289 31.1744 7.70576 30.5667C8.24524 30.0042 8.67142 29.5605 8.67142 28.6091C8.67142 27.6582 8.24524 27.215 7.70576 26.653C7.12289 26.0453 6.46143 25.356 6.46143 24.0047C6.46143 22.6538 7.12289 21.9651 7.70576 21.3573C8.24524 20.7959 8.67142 20.3521 8.67142 19.4018C8.67142 18.4514 8.24524 18.0076 7.70576 17.4462C7.12289 16.8384 6.46143 16.1497 6.46143 14.7983C6.46143 13.4475 7.12289 12.7587 7.70576 12.151C8.24524 11.5895 8.67142 11.1458 8.67142 10.1954C8.67142 9.9177 8.89956 9.69231 9.18181 9.69231C9.46405 9.69231 9.6922 9.9177 9.6922 10.1954C9.6922 11.5463 9.03073 12.235 8.44786 12.8428C7.90838 13.4042 7.48221 13.848 7.48221 14.7983C7.48221 15.7487 7.90838 16.1924 8.44786 16.7544C9.03073 17.3622 9.6922 18.0504 9.6922 19.4018C9.6922 20.7526 9.03073 21.4413 8.44786 22.0491C7.90838 22.6106 7.48221 23.0543 7.48221 24.0047C7.48221 24.9555 7.90838 25.3993 8.44786 25.9612C9.03073 26.569 9.6922 27.2578 9.6922 28.6091C9.6922 29.9609 9.03073 30.6502 8.44786 31.2579C7.90838 31.8199 7.48221 32.2642 7.48221 33.215C7.48221 34.1659 7.90838 34.6096 8.44786 35.1716C9.03073 35.7794 9.6922 36.4686 9.6922 37.82C9.6922 39.1723 9.03073 39.8616 8.44786 40.4693C7.90838 41.0318 7.48221 41.476 7.48221 42.4274C7.48221 43.3793 7.90838 43.8235 8.44786 44.3855C9.03073 44.9938 9.6922 45.683 9.6922 47.0354C9.6922 47.3131 9.46405 47.5385 9.18181 47.5385Z" fill="#FFC024"/>
  <path fill-rule="evenodd" clip-rule="evenodd" d="M11.4894 47.5385C11.2072 47.5385 10.979 47.3131 10.979 47.0354C10.979 46.0835 10.5529 45.6392 10.0134 45.0768C9.43051 44.469 8.76904 43.7798 8.76904 42.4274C8.76904 41.0756 9.43051 40.3863 10.0134 39.7781C10.5529 39.2161 10.979 38.7718 10.979 37.82C10.979 36.8686 10.5529 36.4254 10.0134 35.8634C9.43051 35.2556 8.76904 34.5664 8.76904 33.215C8.76904 31.8632 9.43051 31.1744 10.0134 30.5667C10.5529 30.0042 10.979 29.5605 10.979 28.6091C10.979 27.6582 10.5529 27.215 10.0134 26.653C9.43051 26.0453 8.76904 25.356 8.76904 24.0047C8.76904 22.6538 9.43051 21.9651 10.0134 21.3573C10.5529 20.7959 10.979 20.3521 10.979 19.4018C10.979 18.4514 10.5529 18.0076 10.0134 17.4462C9.43051 16.8384 8.76904 16.1497 8.76904 14.7983C8.76904 13.4475 9.43051 12.7587 10.0134 12.151C10.5529 11.5895 10.979 11.1458 10.979 10.1954C10.979 9.9177 11.2072 9.69231 11.4894 9.69231C11.7717 9.69231 11.9998 9.9177 11.9998 10.1954C11.9998 11.5463 11.3383 12.235 10.7555 12.8428C10.216 13.4042 9.78982 13.848 9.78982 14.7983C9.78982 15.7487 10.216 16.1924 10.7555 16.7544C11.3383 17.3622 11.9998 18.0504 11.9998 19.4018C11.9998 20.7526 11.3383 21.4413 10.7555 22.0491C10.216 22.6106 9.78982 23.0543 9.78982 24.0047C9.78982 24.9555 10.216 25.3993 10.7555 25.9612C11.3383 26.569 11.9998 27.2578 11.9998 28.6091C11.9998 29.9609 11.3383 30.6502 10.7555 31.2579C10.216 31.8199 9.78982 32.2642 9.78982 33.215C9.78982 34.1659 10.216 34.6096 10.7555 35.1716C11.3383 35.7794 11.9998 36.4686 11.9998 37.82C11.9998 39.1723 11.3383 39.8616 10.7555 40.4693C10.216 41.0318 9.78982 41.476 9.78982 42.4274C9.78982 43.3793 10.216 43.8235 10.7555 44.3855C11.3383 44.9938 11.9998 45.683 11.9998 47.0354C11.9998 47.3131 11.7717 47.5385 11.4894 47.5385Z" fill="#FFC024"/>
  <mask id="mask0" mask-type="alpha" maskUnits="userSpaceOnUse" x="0" y="11" width="48" height="6">
    <path fill-rule="evenodd" clip-rule="evenodd" d="M0.461426 11.0027H47.9694V16.4286H0.461426V11.0027Z" fill="white"/>
  </mask>
  <g mask="url(#mask0)">
    <path fill-rule="evenodd" clip-rule="evenodd" d="M46.6698 11.0075L1.09492 15.0435C0.716619 15.077 0.434891 15.408 0.463414 15.7865C0.491937 16.1665 0.821704 16.4525 1.20251 16.427L46.8544 13.387C47.516 13.343 48.0154 12.7685 47.9663 12.1075C47.9163 11.444 47.3333 10.9485 46.6698 11.0075Z" fill="#FAFAED"/>
  </g>
</svg>
