<svg width="17" height="16" viewBox="0 0 17 16" fill="none" xmlns="http://www.w3.org/2000/svg">
<path fill-rule="evenodd" clip-rule="evenodd" d="M9.49318 8.27706C9.51758 8.18693 9.53494 8.0952 9.53494 8.00027C9.53494 7.90534 9.51758 7.81307 9.49318 7.72294L15.7109 1.83514C16.1426 1.42662 16.1557 0.751442 15.7402 0.326922C15.5271 0.109863 15.2434 0 14.9587 0C14.688 0 14.4168 0.0991967 14.2064 0.298657L8.04342 6.1342L1.88046 0.29919C1.44927 -0.110396 0.762088 -0.0975967 0.347174 0.327456C-0.0688243 0.751442 -0.0558074 1.42662 0.37592 1.83514L6.59366 7.72294C6.56926 7.81307 6.5519 7.90534 6.5519 7.99973C6.5519 8.09466 6.56926 8.18746 6.5942 8.27706L0.37592 14.1654C-0.0558074 14.5739 -0.0688243 15.2491 0.347174 15.6731C0.559784 15.8907 0.843986 16 1.12819 16C1.39937 16 1.67056 15.9008 1.88046 15.7013L8.04396 9.8658L14.2064 15.7013C14.6376 16.1104 15.3248 16.0976 15.7402 15.6731C16.1557 15.2486 16.1426 14.5734 15.7109 14.1649L9.49318 8.27706Z" fill="#FF4E42"/>
</svg>
